<mxfile host="app.diagrams.net" agent="Mozilla/5.0 (Windows NT 10.0; Win64; x64) AppleWebKit/537.36 (KHTML, like Gecko) Chrome/131.0.0.0 Safari/537.36" version="24.9.0">
  <diagram name="Page-1" id="AR27qEnZtEmXtY80r3Sz">
    <mxGraphModel dx="1534" dy="870" grid="1" gridSize="10" guides="1" tooltips="1" connect="1" arrows="1" fold="1" page="1" pageScale="1" pageWidth="850" pageHeight="1100" math="0" shadow="0">
      <root>
        <mxCell id="0" />
        <mxCell id="1" parent="0" />
        <mxCell id="U3gtUN2-kwQOuOc9yV_6-13" value="" style="edgeStyle=orthogonalEdgeStyle;rounded=0;orthogonalLoop=1;jettySize=auto;html=1;" edge="1" parent="1" source="U3gtUN2-kwQOuOc9yV_6-1" target="U3gtUN2-kwQOuOc9yV_6-2">
          <mxGeometry relative="1" as="geometry" />
        </mxCell>
        <mxCell id="U3gtUN2-kwQOuOc9yV_6-1" value="&lt;font style=&quot;font-size: 24px;&quot;&gt;Mulai&lt;/font&gt;" style="ellipse;whiteSpace=wrap;html=1;" vertex="1" parent="1">
          <mxGeometry x="320" y="30" width="210" height="150" as="geometry" />
        </mxCell>
        <mxCell id="U3gtUN2-kwQOuOc9yV_6-15" value="" style="edgeStyle=orthogonalEdgeStyle;rounded=0;orthogonalLoop=1;jettySize=auto;html=1;" edge="1" parent="1" source="U3gtUN2-kwQOuOc9yV_6-2" target="U3gtUN2-kwQOuOc9yV_6-14">
          <mxGeometry relative="1" as="geometry" />
        </mxCell>
        <mxCell id="U3gtUN2-kwQOuOc9yV_6-2" value="Membuka aplikasi text editor" style="rounded=1;whiteSpace=wrap;html=1;" vertex="1" parent="1">
          <mxGeometry x="365" y="230" width="120" height="60" as="geometry" />
        </mxCell>
        <mxCell id="U3gtUN2-kwQOuOc9yV_6-17" value="" style="edgeStyle=orthogonalEdgeStyle;rounded=0;orthogonalLoop=1;jettySize=auto;html=1;" edge="1" parent="1" source="U3gtUN2-kwQOuOc9yV_6-14" target="U3gtUN2-kwQOuOc9yV_6-16">
          <mxGeometry relative="1" as="geometry" />
        </mxCell>
        <mxCell id="U3gtUN2-kwQOuOc9yV_6-14" value="Membuat file html dan css, serta framework bootstrap" style="rounded=1;whiteSpace=wrap;html=1;" vertex="1" parent="1">
          <mxGeometry x="365" y="340" width="120" height="60" as="geometry" />
        </mxCell>
        <mxCell id="U3gtUN2-kwQOuOc9yV_6-19" value="" style="edgeStyle=orthogonalEdgeStyle;rounded=0;orthogonalLoop=1;jettySize=auto;html=1;" edge="1" parent="1" source="U3gtUN2-kwQOuOc9yV_6-16" target="U3gtUN2-kwQOuOc9yV_6-18">
          <mxGeometry relative="1" as="geometry" />
        </mxCell>
        <mxCell id="U3gtUN2-kwQOuOc9yV_6-16" value="Membuat struktur dasar html disertai dengan link koneksi bootstrap" style="rounded=1;whiteSpace=wrap;html=1;" vertex="1" parent="1">
          <mxGeometry x="365" y="450" width="120" height="60" as="geometry" />
        </mxCell>
        <mxCell id="U3gtUN2-kwQOuOc9yV_6-21" value="" style="edgeStyle=orthogonalEdgeStyle;rounded=0;orthogonalLoop=1;jettySize=auto;html=1;" edge="1" parent="1" source="U3gtUN2-kwQOuOc9yV_6-18" target="U3gtUN2-kwQOuOc9yV_6-20">
          <mxGeometry relative="1" as="geometry" />
        </mxCell>
        <mxCell id="U3gtUN2-kwQOuOc9yV_6-18" value="Membuat navbar bootstrap yang berisi navigasi ke halaman home, about me. educations, find me, dan message me" style="rounded=1;whiteSpace=wrap;html=1;" vertex="1" parent="1">
          <mxGeometry x="362" y="550" width="125" height="100" as="geometry" />
        </mxCell>
        <mxCell id="U3gtUN2-kwQOuOc9yV_6-23" value="" style="edgeStyle=orthogonalEdgeStyle;rounded=0;orthogonalLoop=1;jettySize=auto;html=1;" edge="1" parent="1" source="U3gtUN2-kwQOuOc9yV_6-20" target="U3gtUN2-kwQOuOc9yV_6-22">
          <mxGeometry relative="1" as="geometry" />
        </mxCell>
        <mxCell id="U3gtUN2-kwQOuOc9yV_6-20" value="membuat halaman home dengan isi gambar pembuat, nama, dan status pembuat" style="rounded=1;whiteSpace=wrap;html=1;" vertex="1" parent="1">
          <mxGeometry x="362" y="710" width="125" height="80" as="geometry" />
        </mxCell>
        <mxCell id="U3gtUN2-kwQOuOc9yV_6-25" value="" style="edgeStyle=orthogonalEdgeStyle;rounded=0;orthogonalLoop=1;jettySize=auto;html=1;" edge="1" parent="1" source="U3gtUN2-kwQOuOc9yV_6-22" target="U3gtUN2-kwQOuOc9yV_6-24">
          <mxGeometry relative="1" as="geometry" />
        </mxCell>
        <mxCell id="U3gtUN2-kwQOuOc9yV_6-22" value="membuat halaman about me. berisi video dan penjelasan lebih lanjut mengenai pembuat" style="rounded=1;whiteSpace=wrap;html=1;" vertex="1" parent="1">
          <mxGeometry x="362" y="850" width="125" height="90" as="geometry" />
        </mxCell>
        <mxCell id="U3gtUN2-kwQOuOc9yV_6-27" value="" style="edgeStyle=orthogonalEdgeStyle;rounded=0;orthogonalLoop=1;jettySize=auto;html=1;" edge="1" parent="1" source="U3gtUN2-kwQOuOc9yV_6-24" target="U3gtUN2-kwQOuOc9yV_6-26">
          <mxGeometry relative="1" as="geometry" />
        </mxCell>
        <mxCell id="U3gtUN2-kwQOuOc9yV_6-24" value="membuat halaman educations yang berisi latar pendidikan pembuat" style="rounded=1;whiteSpace=wrap;html=1;" vertex="1" parent="1">
          <mxGeometry x="365" y="1000" width="120" height="60" as="geometry" />
        </mxCell>
        <mxCell id="U3gtUN2-kwQOuOc9yV_6-29" value="" style="edgeStyle=orthogonalEdgeStyle;rounded=0;orthogonalLoop=1;jettySize=auto;html=1;" edge="1" parent="1" source="U3gtUN2-kwQOuOc9yV_6-26" target="U3gtUN2-kwQOuOc9yV_6-28">
          <mxGeometry relative="1" as="geometry" />
        </mxCell>
        <mxCell id="U3gtUN2-kwQOuOc9yV_6-26" value="membuat halaman find me, berisi kontak pembuat baik alamat email. nomor telepon dan media sosial pembuat" style="rounded=1;whiteSpace=wrap;html=1;" vertex="1" parent="1">
          <mxGeometry x="357" y="1130" width="135" height="110" as="geometry" />
        </mxCell>
        <mxCell id="U3gtUN2-kwQOuOc9yV_6-31" value="" style="edgeStyle=orthogonalEdgeStyle;rounded=0;orthogonalLoop=1;jettySize=auto;html=1;" edge="1" parent="1" source="U3gtUN2-kwQOuOc9yV_6-28" target="U3gtUN2-kwQOuOc9yV_6-30">
          <mxGeometry relative="1" as="geometry" />
        </mxCell>
        <mxCell id="U3gtUN2-kwQOuOc9yV_6-28" value="menambahkan ikon sosial media dengan &lt;i&gt;hyperlink&lt;/i&gt;&amp;nbsp;menuju alamat website sosial media tersebut" style="rounded=1;whiteSpace=wrap;html=1;" vertex="1" parent="1">
          <mxGeometry x="363" y="1310" width="123" height="90" as="geometry" />
        </mxCell>
        <mxCell id="U3gtUN2-kwQOuOc9yV_6-33" value="" style="edgeStyle=orthogonalEdgeStyle;rounded=0;orthogonalLoop=1;jettySize=auto;html=1;" edge="1" parent="1" source="U3gtUN2-kwQOuOc9yV_6-30" target="U3gtUN2-kwQOuOc9yV_6-32">
          <mxGeometry relative="1" as="geometry" />
        </mxCell>
        <mxCell id="U3gtUN2-kwQOuOc9yV_6-30" value="membuat halaman message me, memuat form yang berisi nama pengirim, email pengirim, dan isi pesan dari pengirim" style="rounded=1;whiteSpace=wrap;html=1;" vertex="1" parent="1">
          <mxGeometry x="360.5" y="1480" width="128" height="100" as="geometry" />
        </mxCell>
        <mxCell id="U3gtUN2-kwQOuOc9yV_6-35" value="" style="edgeStyle=orthogonalEdgeStyle;rounded=0;orthogonalLoop=1;jettySize=auto;html=1;" edge="1" parent="1" source="U3gtUN2-kwQOuOc9yV_6-32" target="U3gtUN2-kwQOuOc9yV_6-34">
          <mxGeometry relative="1" as="geometry" />
        </mxCell>
        <mxCell id="U3gtUN2-kwQOuOc9yV_6-32" value="membuat tombol submit untuk mengirim pesan ke pembuat website" style="rounded=1;whiteSpace=wrap;html=1;" vertex="1" parent="1">
          <mxGeometry x="364.5" y="1650" width="120" height="60" as="geometry" />
        </mxCell>
        <mxCell id="U3gtUN2-kwQOuOc9yV_6-37" value="" style="edgeStyle=orthogonalEdgeStyle;rounded=0;orthogonalLoop=1;jettySize=auto;html=1;" edge="1" parent="1" source="U3gtUN2-kwQOuOc9yV_6-34" target="U3gtUN2-kwQOuOc9yV_6-36">
          <mxGeometry relative="1" as="geometry" />
        </mxCell>
        <mxCell id="U3gtUN2-kwQOuOc9yV_6-34" value="membuat halaman &lt;i&gt;credit, &lt;/i&gt;berisi nama pembuat website" style="rounded=1;whiteSpace=wrap;html=1;" vertex="1" parent="1">
          <mxGeometry x="365" y="1780" width="120" height="60" as="geometry" />
        </mxCell>
        <mxCell id="U3gtUN2-kwQOuOc9yV_6-40" value="" style="edgeStyle=orthogonalEdgeStyle;rounded=0;orthogonalLoop=1;jettySize=auto;html=1;" edge="1" parent="1" source="U3gtUN2-kwQOuOc9yV_6-36" target="U3gtUN2-kwQOuOc9yV_6-39">
          <mxGeometry relative="1" as="geometry" />
        </mxCell>
        <mxCell id="U3gtUN2-kwQOuOc9yV_6-36" value="membuat &lt;i&gt;hyperlink&lt;/i&gt;&amp;nbsp;navbar menuju halaman halaman yang telah dibuat" style="rounded=1;whiteSpace=wrap;html=1;" vertex="1" parent="1">
          <mxGeometry x="363.5" y="1910" width="125" height="80" as="geometry" />
        </mxCell>
        <mxCell id="U3gtUN2-kwQOuOc9yV_6-44" value="" style="edgeStyle=orthogonalEdgeStyle;rounded=0;orthogonalLoop=1;jettySize=auto;html=1;" edge="1" parent="1" source="U3gtUN2-kwQOuOc9yV_6-39" target="U3gtUN2-kwQOuOc9yV_6-43">
          <mxGeometry relative="1" as="geometry" />
        </mxCell>
        <mxCell id="U3gtUN2-kwQOuOc9yV_6-39" value="testing website" style="rounded=1;whiteSpace=wrap;html=1;" vertex="1" parent="1">
          <mxGeometry x="365" y="2050" width="120" height="60" as="geometry" />
        </mxCell>
        <mxCell id="U3gtUN2-kwQOuOc9yV_6-43" value="&lt;span style=&quot;font-size: 24px;&quot;&gt;Selesai&lt;/span&gt;" style="ellipse;whiteSpace=wrap;html=1;" vertex="1" parent="1">
          <mxGeometry x="319.5" y="2200" width="210" height="150" as="geometry" />
        </mxCell>
      </root>
    </mxGraphModel>
  </diagram>
</mxfile>
